<svg version="1.0" xmlns="http://www.w3.org/2000/svg"
 preserveAspectRatio="xMidYMid meet">
<metadata>
Created by potrace 1.16, written by Peter Selinger 2001-2019
</metadata>
<g transform="translate(0.000000,500.000000) scale(0.100000,-0.100000)"
fill="#ffffff" stroke="none">
<path d="M2776 4802 c-3 -5 -19 -46 -35 -92 -49 -132 -104 -218 -308 -482
-145 -187 -218 -318 -259 -468 -25 -91 -25 -328 0 -420 26 -96 96 -233 170
-332 35 -49 70 -105 77 -125 12 -39 12 -54 -16 -433 -34 -464 -29 -982 11
-1260 66 -459 229 -781 473 -934 48 -31 85 -29 96 4 9 28 3 34 -79 90 -264
178 -405 573 -436 1225 -17 343 32 1264 71 1336 5 11 50 51 99 90 111 87 186
182 251 314 70 143 90 230 96 405 6 173 -14 316 -73 505 -83 272 -99 377 -74
495 10 48 10 63 0 75 -13 16 -55 21 -64 7z m48 -583 c68 -218 79 -281 80 -434
0 -238 -56 -421 -179 -577 -45 -57 -189 -188 -208 -188 -6 0 -8 60 -4 168 7
186 23 274 82 440 35 99 36 104 19 123 -29 33 -53 24 -75 -28 -67 -155 -108
-340 -117 -532 l-7 -134 -43 61 c-92 131 -132 264 -132 436 0 221 53 343 282
647 84 112 169 229 188 258 l34 54 22 -90 c12 -49 38 -141 58 -204z"/>
<path d="M915 2999 c-157 -55 -255 -202 -255 -381 0 -281 264 -630 603 -797
168 -82 327 -121 500 -121 216 0 385 69 458 187 20 32 22 48 21 148 -4 282
-127 507 -381 698 -222 168 -509 274 -761 283 -109 4 -133 2 -185 -17z m325
-73 c373 -60 740 -313 869 -598 37 -80 61 -196 61 -287 l0 -70 -37 -11 c-21
-6 -83 -14 -138 -17 -153 -8 -341 33 -540 118 -226 97 -392 208 -578 389
l-130 125 6 70 c17 232 188 330 487 281z m-302 -633 c170 -148 393 -273 629
-351 147 -49 245 -66 380 -66 119 -1 122 -2 100 -19 -12 -9 -53 -27 -92 -40
-103 -33 -291 -30 -428 6 -266 71 -508 243 -656 467 -89 136 -86 136 67 3z"/>
<path d="M935 2817 c-63 -21 -85 -36 -85 -58 0 -29 25 -34 82 -15 119 38 241
2 413 -122 28 -20 138 -122 245 -227 218 -213 343 -313 441 -351 96 -38 108
-24 18 19 -134 64 -223 141 -420 362 -196 220 -311 315 -452 372 -74 30 -184
39 -242 20z"/>
<path d="M3573 2999 c-278 -58 -515 -178 -699 -352 -186 -176 -268 -348 -281
-593 -7 -126 2 -156 65 -219 85 -85 196 -125 370 -132 245 -11 462 53 690 204
144 95 305 273 379 418 156 304 66 610 -199 681 -73 19 -215 16 -325 -7z m334
-89 c59 -25 126 -92 150 -147 19 -47 33 -131 26 -166 -7 -35 -109 -146 -226
-244 -339 -284 -804 -454 -1102 -402 -90 15 -90 15 -88 111 5 302 225 585 586
756 237 113 516 152 654 92z m88 -571 c-180 -308 -528 -524 -880 -546 -109 -7
-229 14 -304 51 -28 15 -51 27 -51 29 0 1 62 3 138 3 118 1 153 5 253 32 207
54 402 141 580 260 94 63 267 204 284 232 4 6 9 9 12 6 3 -2 -12 -33 -32 -67z"/>
<path d="M3700 2785 c-97 -27 -210 -94 -313 -186 -32 -28 -122 -124 -199 -211
-167 -190 -289 -295 -407 -352 -89 -43 -95 -59 -10 -31 97 33 220 127 435 336
231 224 315 292 430 346 68 32 89 37 154 37 41 1 94 -5 118 -13 38 -13 45 -13
59 1 20 21 11 33 -40 60 -54 27 -154 33 -227 13z"/>
</g>
</svg>
